<?xml version="1.0" standalone="no"?>
<!DOCTYPE svg PUBLIC "-//W3C//DTD SVG 20010904//EN"
 "http://www.w3.org/TR/2001/REC-SVG-20010904/DTD/svg10.dtd">
<svg version="1.0" xmlns="http://www.w3.org/2000/svg"
 width="700.000000pt" height="700.000000pt" viewBox="0 0 700.000000 700.000000"
 preserveAspectRatio="xMidYMid meet">
<metadata>
Created by potrace 1.14, written by Peter Selinger 2001-2017
</metadata>
<g transform="translate(0.000000,700.000000) scale(0.100000,-0.100000)"
fill="#000000" stroke="none">
<path d="M3930 6314 c-88 -30 -254 -108 -279 -132 -20 -19 -49 -39 -71 -49
-14 -6 -53 -37 -214 -171 -102 -84 -186 -165 -186 -179 0 -7 -6 -16 -14 -20
-35 -20 -166 -214 -166 -246 0 -9 -4 -18 -9 -22 -5 -3 -12 -19 -16 -36 -4 -19
-16 -34 -30 -39 -48 -18 -71 -116 -80 -335 -4 -77 -11 -161 -17 -187 -9 -44
-13 -48 -38 -48 -16 0 -32 -5 -36 -12 -4 -6 -9 -47 -11 -91 -3 -66 -7 -83 -23
-94 -23 -16 -50 -75 -50 -109 0 -28 -38 -94 -54 -94 -7 0 -23 -11 -36 -25 -13
-14 -31 -25 -40 -25 -23 0 -40 -20 -40 -48 0 -29 -51 -80 -89 -88 -14 -3 -35
-9 -46 -14 -19 -8 -69 -14 -330 -41 -241 -24 -284 -28 -375 -28 -52 -1 -129
-8 -170 -17 -41 -9 -90 -18 -108 -21 -18 -3 -35 -9 -38 -14 -3 -5 -17 -9 -32
-9 -15 0 -67 -14 -116 -30 -49 -17 -95 -30 -103 -30 -7 0 -30 -9 -50 -20 -21
-11 -46 -20 -55 -20 -21 0 -69 -21 -248 -109 -228 -112 -326 -185 -549 -411
-195 -197 -213 -220 -209 -271 l3 -43 52 66 c51 65 287 306 391 400 47 41 184
138 196 138 3 0 33 17 68 37 71 42 281 137 324 147 16 4 43 13 59 20 58 27
234 76 448 125 26 6 91 11 145 11 95 1 205 9 372 29 47 6 115 12 153 14 l67 3
0 -36 c0 -19 5 -53 11 -75 6 -22 13 -55 16 -73 3 -18 9 -35 14 -38 5 -3 9 -16
9 -30 0 -13 4 -32 9 -42 8 -16 21 -63 42 -152 16 -72 45 -170 52 -176 4 -4 7
-16 7 -27 0 -11 6 -28 13 -36 8 -9 24 -45 37 -81 27 -71 62 -143 103 -207 15
-24 27 -45 27 -47 0 -3 14 -25 30 -49 17 -25 30 -47 30 -51 0 -7 79 -129 88
-136 4 -3 25 -30 46 -60 76 -107 186 -238 248 -294 59 -54 220 -146 254 -146
8 0 51 -18 95 -39 44 -22 95 -43 112 -47 18 -3 37 -10 42 -14 20 -15 202 -62
275 -70 41 -5 107 -15 145 -22 45 -8 159 -12 320 -12 243 0 252 1 340 28 49
15 94 31 100 35 5 5 23 11 39 15 39 9 166 73 191 95 22 21 50 28 145 41 90 12
197 38 234 57 55 28 119 82 241 203 66 65 129 135 139 157 11 21 27 47 36 58
9 11 27 44 39 74 22 52 23 64 19 255 -4 162 -10 220 -28 296 -12 52 -26 99
-31 105 -5 5 -9 16 -9 25 0 9 -16 47 -35 84 -29 57 -35 79 -35 132 0 34 -4 74
-10 88 -7 19 -6 26 3 26 7 0 29 14 50 31 37 30 37 31 37 108 0 62 -5 88 -25
129 -14 29 -25 55 -25 59 0 4 -12 24 -26 45 l-27 38 24 20 c13 10 29 19 35 20
19 0 74 69 75 93 6 84 -4 445 -13 502 -24 159 -93 330 -197 490 -67 104 -167
209 -296 312 -44 34 -87 69 -95 76 -36 31 -214 147 -225 147 -7 0 -19 7 -26
16 -7 9 -22 20 -34 25 -32 14 -59 33 -68 47 -4 6 -17 12 -29 12 -17 0 -59 19
-160 71 -10 5 -27 9 -37 9 -11 0 -23 5 -26 10 -3 6 -19 10 -35 10 -16 0 -31 4
-34 9 -3 5 -20 11 -38 14 -18 3 -67 14 -108 25 -100 25 -381 30 -450 6z m124
-43 c-35 -9 -77 -28 -237 -107 -59 -30 -114 -54 -122 -54 -17 0 -39 -36 -30
-50 3 -6 11 -10 17 -10 6 0 91 38 189 85 98 47 187 85 197 85 9 0 27 7 39 15
11 8 63 19 114 26 89 10 99 9 189 -16 52 -15 111 -30 130 -35 29 -6 22 -8 -40
-9 -41 -1 -107 -7 -146 -14 -66 -12 -71 -11 -66 5 2 9 16 18 31 20 18 2 26 9
26 23 0 27 -43 30 -115 10 -30 -9 -71 -20 -90 -24 -46 -11 -107 -38 -115 -51
-3 -5 -14 -10 -24 -10 -10 0 -24 -7 -31 -15 -7 -8 -18 -15 -26 -15 -20 0 -98
-52 -141 -94 -21 -20 -42 -36 -48 -36 -24 0 -165 -109 -165 -127 0 -7 -14 -33
-31 -58 -31 -46 -33 -75 -5 -75 13 0 76 81 76 97 0 21 35 42 61 36 21 -4 36 1
59 21 18 14 36 26 41 26 5 0 30 16 55 36 52 39 146 90 108 57 -12 -10 -34 -27
-48 -37 -28 -20 -35 -53 -12 -62 8 -3 42 17 78 46 34 29 74 57 88 64 14 6 36
18 50 28 14 9 41 19 60 23 19 4 53 16 74 27 48 24 171 48 246 47 l55 -1 -40
-9 c-90 -21 -318 -111 -347 -137 -22 -19 -23 -41 -2 -49 17 -6 22 -2 -72 -56
-104 -59 -143 -97 -144 -140 0 -10 -15 -37 -34 -60 -70 -86 -109 -152 -110
-187 -1 -28 3 -35 18 -35 13 0 22 9 26 26 10 35 60 109 75 109 6 0 46 29 88
64 85 73 326 236 378 255 19 7 49 19 67 27 66 28 55 13 -23 -32 -44 -26 -93
-58 -108 -70 -16 -13 -34 -24 -41 -24 -7 0 -27 -7 -45 -16 -26 -13 -32 -21
-27 -39 4 -17 -3 -34 -29 -65 -19 -23 -35 -50 -35 -61 0 -10 -6 -19 -12 -19
-17 -1 -98 -75 -98 -89 0 -6 -4 -11 -9 -11 -14 0 -53 -68 -46 -80 13 -21 35
-8 86 51 50 57 111 106 152 122 23 9 33 37 17 47 -14 9 8 47 52 87 67 62 341
102 699 103 182 0 209 -2 228 -17 21 -17 14 -18 -181 -19 -161 -1 -212 -5
-247 -18 -24 -9 -52 -16 -63 -16 -11 0 -31 -9 -45 -20 -14 -11 -36 -20 -48
-20 -12 0 -30 -9 -40 -20 -10 -11 -28 -20 -40 -20 -13 0 -28 -6 -34 -14 -7 -8
-24 -17 -39 -21 -15 -4 -40 -12 -57 -20 -16 -7 -38 -15 -47 -19 -25 -8 -23
-37 2 -43 18 -5 19 -8 7 -22 -8 -9 -18 -26 -22 -39 -13 -44 21 -35 93 25 73
61 158 108 252 139 44 14 99 18 275 22 131 3 248 0 290 -6 45 -8 73 -8 81 -1
8 6 29 -9 72 -53 l61 -63 -60 -3 c-53 -3 -62 0 -79 20 l-18 23 -325 0 c-227 0
-328 -3 -338 -11 -8 -7 -29 -15 -48 -19 -19 -4 -63 -26 -97 -49 -35 -22 -91
-59 -124 -81 -33 -22 -83 -54 -111 -72 -52 -32 -99 -77 -99 -94 0 -31 40 -13
149 65 66 47 123 86 127 86 4 0 29 14 56 30 26 17 54 30 61 30 7 0 20 9 30 20
9 11 27 20 40 20 13 0 27 4 33 9 5 5 38 13 74 17 42 4 62 3 55 -3 -8 -8 -75
-44 -157 -84 -10 -5 -28 -9 -41 -9 -57 0 -115 -52 -84 -75 13 -9 12 -14 -4
-34 -23 -28 -24 -40 -4 -47 10 -4 35 12 69 44 56 53 131 96 205 117 25 7 65
20 89 29 37 14 88 16 345 14 l301 -3 27 -40 c46 -70 127 -233 148 -300 41
-127 51 -210 51 -433 0 -234 -5 -256 -59 -280 -14 -6 -40 -20 -58 -31 -17 -11
-58 -24 -90 -30 -74 -12 -1009 -37 -1047 -27 l-29 7 28 15 c34 17 59 18 85 2
16 -10 24 -10 42 1 13 8 53 14 95 15 87 2 100 11 87 63 l-9 38 -90 3 c-154 6
-176 5 -188 -7 -7 -7 -14 -7 -23 0 -8 7 -26 8 -46 3 -18 -4 -42 -8 -53 -8 -15
-1 -21 -9 -23 -34 -4 -37 10 -60 46 -73 20 -8 22 -12 12 -24 -6 -8 -9 -23 -6
-33 4 -13 1 -22 -9 -26 -8 -3 -15 -14 -15 -25 0 -10 -8 -21 -18 -23 -18 -5
-152 32 -182 50 -9 5 -30 13 -48 16 -17 4 -34 12 -37 17 -4 5 -13 9 -22 9 -9
0 -58 19 -109 41 -52 23 -123 49 -159 58 l-65 16 16 30 c20 39 30 120 15 129
-6 4 -11 25 -11 48 0 31 -4 41 -19 45 -12 3 -21 15 -23 32 -2 21 -8 26 -30 24
-23 -1 -27 3 -33 37 -8 49 -36 79 -68 73 -19 -4 -26 0 -30 17 -5 18 -11 22
-36 18 -22 -3 -36 1 -48 14 -9 10 -29 18 -44 18 -24 0 -28 4 -31 33 -2 24 -8
33 -25 35 -13 2 -23 10 -23 18 0 8 -8 18 -17 21 -10 4 -23 13 -29 21 -11 14
-38 13 -76 -2 -12 -6 -17 -2 -20 16 -2 15 -11 24 -25 26 -14 2 -23 11 -25 25
-2 15 -11 23 -30 25 -25 3 -27 7 -30 55 -2 41 -7 53 -21 55 -24 5 -57 38 -57
57 0 7 -8 18 -17 24 -16 9 -16 13 5 63 12 29 22 57 22 61 0 15 66 115 109 166
25 29 60 70 76 91 31 40 186 178 270 240 26 19 54 42 63 50 30 27 197 127 258
155 118 54 147 63 214 63 41 0 42 -1 14 -7z m81 -111 c-27 -12 -43 -12 -25 0
8 5 22 9 30 9 10 0 8 -3 -5 -9z m681 -66 c22 -9 58 -29 82 -45 24 -16 46 -29
49 -29 8 0 163 -101 163 -106 0 -2 -24 -4 -53 -4 -48 0 -54 2 -53 21 1 25 -45
57 -84 58 -35 2 -112 30 -82 31 26 0 40 26 23 43 -12 12 -103 -1 -199 -30 -40
-11 -57 -12 -65 -4 -18 18 -147 13 -208 -8 -30 -10 -72 -21 -94 -25 -21 -4
-52 -14 -67 -22 -15 -8 -28 -12 -28 -9 0 18 232 105 345 130 87 19 224 19 271
-1z m29 -139 c22 -8 47 -15 56 -15 9 0 28 -6 43 -13 23 -12 6 -15 -147 -20
-94 -4 -212 -14 -261 -22 -49 -8 -91 -13 -93 -11 -2 2 36 24 84 49 87 46 89
46 183 46 57 0 111 -6 135 -14z m-590 -40 c-16 -13 -33 -24 -37 -25 -3 0 -39
-22 -79 -50 -40 -27 -75 -47 -78 -44 -9 9 65 68 134 106 81 43 103 49 60 13z
m883 -142 c-42 -2 -114 -2 -160 0 -46 1 -11 3 77 3 88 0 125 -2 83 -3z m165
-10 c-7 -2 -21 -2 -30 0 -10 3 -4 5 12 5 17 0 24 -2 18 -5z m-2095 -963 c14
-23 17 -23 -47 -9 -42 9 -57 8 -83 -5 l-33 -16 28 25 c37 33 115 36 135 5z
m72 -29 c0 -5 -9 -7 -20 -4 -11 3 -20 7 -20 9 0 2 9 4 20 4 11 0 20 -4 20 -9z
m-125 -47 c44 -20 63 -51 67 -105 2 -36 7 -44 23 -44 17 0 20 8 23 53 2 31 -2
60 -9 68 -10 12 -9 13 7 7 63 -23 79 -39 86 -87 4 -26 11 -61 17 -78 16 -44
13 -206 -3 -264 -8 -27 -20 -100 -27 -162 -16 -140 -13 -144 91 -150 78 -5 94
3 117 53 7 17 23 42 35 58 16 20 24 48 29 101 7 73 18 100 64 165 14 19 25 45
25 59 0 44 24 51 104 30 39 -10 85 -24 101 -32 80 -36 107 -48 195 -81 79 -30
181 -64 238 -81 8 -2 12 -25 12 -66 0 -97 39 -146 160 -199 49 -21 70 -24 193
-24 l137 0 39 44 c36 40 40 51 46 116 8 79 -1 108 -53 185 -27 40 -29 46 -14
51 24 9 432 18 432 10 0 -4 -4 -11 -9 -16 -4 -6 -16 -33 -26 -61 l-18 -51
-135 -5 c-117 -4 -137 -7 -149 -23 -18 -26 -11 -40 18 -38 128 12 202 15 232
9 30 -6 37 -12 42 -39 9 -44 61 -123 97 -148 26 -19 40 -21 158 -17 l128 3 6
-35 c3 -19 6 -60 6 -90 0 -30 7 -66 15 -80 81 -144 116 -290 123 -522 5 -197
0 -221 -68 -322 -17 -24 -30 -49 -30 -56 0 -18 -247 -256 -309 -297 -59 -40
-209 -82 -294 -83 -26 0 -64 -7 -85 -16 -78 -34 -323 -68 -446 -61 -135 8
-299 41 -381 77 -48 22 -147 50 -156 45 -15 -10 -10 -44 9 -53 9 -5 39 -15 67
-21 27 -7 54 -16 60 -20 18 -14 110 -40 206 -58 69 -13 140 -18 269 -17 120 0
167 -2 150 -9 -14 -5 -34 -13 -45 -17 -47 -18 -114 -39 -165 -52 -74 -18 -446
-18 -555 0 -44 8 -111 18 -149 23 -135 18 -306 71 -461 144 -38 18 -81 36 -95
40 -94 28 -216 120 -307 233 -37 47 -79 99 -93 116 -40 48 -170 234 -170 242
0 4 -6 15 -14 23 -8 9 -30 45 -49 81 -19 36 -50 90 -69 121 -18 31 -40 76 -48
100 -8 24 -24 64 -37 88 -13 24 -23 51 -23 60 0 10 -4 21 -9 26 -5 6 -16 39
-26 75 -9 36 -23 90 -31 120 -8 30 -19 71 -24 90 -8 33 -15 59 -41 148 -15 52
-28 122 -28 155 -1 23 3 27 25 27 14 0 33 4 42 9 9 4 33 11 52 15 27 5 32 4
22 -6 -30 -30 -1 -86 32 -59 7 6 15 9 17 6 3 -2 31 -7 62 -9 32 -3 69 -13 85
-23 54 -37 79 -46 98 -35 13 7 21 7 29 -3 5 -7 31 -15 57 -19 51 -6 68 7 68
53 0 17 6 21 35 21 29 0 37 5 45 26 6 14 10 38 10 53 0 40 8 43 49 18 60 -37
85 -48 116 -50 24 -2 30 2 30 17 0 19 -4 22 -60 47 -16 8 -47 24 -67 36 l-38
23 0 164 c0 142 3 169 20 209 27 60 42 67 95 41z m2323 -350 c7 -13 18 -14 69
-7 63 10 103 2 103 -19 0 -7 11 -35 25 -63 13 -27 25 -58 25 -67 0 -9 5 -20
10 -23 6 -3 10 -30 10 -59 0 -63 -13 -78 -93 -106 -41 -14 -83 -20 -150 -20
-89 0 -94 1 -118 28 -42 45 -58 77 -65 129 -5 41 -2 58 20 103 14 29 26 62 26
72 0 14 8 18 39 18 22 0 44 6 51 15 16 19 37 19 48 -1z m-706 -66 c12 -7 30
-21 40 -30 10 -10 23 -18 28 -18 6 0 10 -8 10 -19 0 -10 7 -34 15 -53 22 -54
6 -134 -34 -170 -30 -27 -36 -28 -135 -28 -98 0 -106 2 -173 36 -39 19 -81 46
-93 59 -31 33 -38 110 -15 163 25 56 67 68 238 71 62 1 105 -4 119 -11z"/>
<path d="M5610 4581 c-18 -11 -92 -17 -105 -9 -15 9 -98 7 -117 -3 -10 -6 -19
-5 -23 1 -10 17 -44 11 -55 -10 -7 -12 -8 -37 -2 -67 7 -43 10 -48 32 -45 14
1 32 3 40 3 107 6 262 24 288 35 33 13 42 37 20 51 -7 4 -13 17 -13 28 0 22
-39 32 -65 16z"/>
<path d="M3084 4495 c-3 -8 6 -35 20 -60 l26 -44 -30 -16 c-18 -9 -30 -23 -30
-36 0 -27 27 -35 50 -14 19 17 21 17 40 0 32 -29 70 1 39 32 -8 8 4 24 40 58
28 26 51 53 51 60 0 29 -32 23 -70 -11 -22 -20 -44 -33 -50 -29 -6 3 -17 22
-25 41 -15 36 -50 47 -61 19z"/>
<path d="M5003 3925 c-43 -19 -53 -42 -53 -129 0 -88 12 -129 38 -124 15 3 17
14 13 95 l-3 91 33 17 c25 14 52 16 124 13 79 -3 96 -7 123 -28 17 -14 31 -32
31 -41 1 -8 5 -19 10 -25 5 -5 11 -22 13 -39 2 -22 8 -30 23 -30 16 0 21 8 23
39 2 21 -1 43 -7 49 -6 6 -11 18 -11 27 0 21 -57 76 -93 89 -41 16 -225 13
-264 -4z"/>
<path d="M5064 3746 c-11 -28 0 -61 20 -61 27 0 44 30 30 53 -15 22 -43 27
-50 8z"/>
<path d="M5247 3743 c-12 -12 -7 -50 8 -63 21 -17 45 -5 45 23 0 35 -33 60
-53 40z"/>
<path d="M4955 3521 c-48 -17 -201 -97 -230 -121 -19 -16 -19 -46 0 -139 26
-122 101 -260 165 -303 116 -78 343 -112 458 -68 104 40 169 84 189 129 25 60
43 162 43 250 l0 84 -43 41 c-54 51 -151 100 -242 120 -72 16 -300 21 -340 7z
m320 -57 c99 -24 109 -36 113 -138 4 -81 3 -84 -24 -105 -15 -12 -39 -24 -53
-27 -14 -3 -35 -9 -46 -13 -11 -5 -29 -4 -40 1 -18 8 -20 19 -20 131 0 115 -1
122 -20 122 -18 0 -21 -9 -26 -100 -4 -55 -10 -110 -14 -121 -11 -33 -47 -47
-105 -42 -41 4 -58 12 -83 37 -31 30 -32 34 -35 133 -4 108 -3 111 53 130 41
13 230 8 300 -8z m-450 -174 c4 -6 14 -10 24 -10 23 0 35 -46 14 -54 -21 -8
-10 -20 60 -65 58 -38 66 -41 135 -41 40 0 81 5 91 12 15 9 28 9 60 -2 32 -10
47 -11 66 -2 14 7 36 12 49 12 12 0 31 7 42 15 10 8 34 15 52 15 42 0 39 22
-4 31 l-29 5 25 8 c14 5 46 21 73 37 l47 29 0 -33 c0 -37 -23 -147 -40 -194
-21 -57 -171 -133 -263 -133 -100 0 -260 47 -318 93 -46 37 -108 160 -132 264
l-14 62 28 -20 c16 -11 31 -24 34 -29z"/>
<path d="M5141 2616 c-24 -29 -9 -51 34 -51 38 0 40 2 40 30 0 26 -4 30 -31
33 -18 2 -36 -3 -43 -12z"/>
<path d="M5474 2545 c-8 -21 4 -35 30 -35 13 0 42 -18 68 -42 25 -24 68 -61
94 -83 99 -81 163 -155 210 -242 19 -35 34 -71 34 -81 0 -9 15 -42 34 -72 19
-30 44 -73 55 -95 22 -44 87 -237 100 -300 5 -22 18 -65 30 -96 11 -31 24 -83
30 -116 8 -53 33 -124 77 -220 8 -17 14 -34 14 -38 0 -3 11 -30 24 -58 58
-125 70 -155 83 -207 8 -30 15 -62 17 -70 1 -8 10 -33 20 -55 11 -22 26 -56
34 -75 8 -19 19 -43 23 -52 5 -10 9 -25 9 -33 0 -16 41 -151 65 -215 7 -19 18
-55 24 -80 5 -25 13 -56 16 -70 4 -14 14 -65 24 -115 16 -86 18 -90 44 -93 27
-3 28 -2 22 35 -4 21 -11 54 -16 73 -15 59 -15 60 56 60 l65 0 0 124 0 125
110 183 110 183 -82 3 c-44 2 -84 -1 -89 -5 -4 -4 -33 -56 -65 -116 -31 -59
-60 -107 -64 -107 -4 0 -35 52 -70 115 l-64 115 -57 0 c-56 0 -58 1 -68 32 -5
18 -13 49 -17 68 -6 32 -20 67 -75 188 -11 24 -29 69 -41 100 -11 32 -28 75
-38 97 -30 70 -38 99 -45 150 -4 28 -18 77 -31 109 -13 33 -24 67 -24 76 0 21
-75 253 -97 300 -9 19 -31 59 -49 88 -19 29 -34 62 -34 73 0 11 -16 48 -35 80
-19 33 -35 64 -35 69 0 15 -197 209 -281 278 -58 47 -85 62 -108 62 -18 0 -34
-6 -37 -15z m1105 -2111 c14 -23 21 -51 20 -82 -1 -26 -3 -38 -6 -27 -2 11
-10 34 -18 50 -15 34 -29 95 -22 95 3 0 14 -16 26 -36z"/>
<path d="M1797 1914 c-4 -4 -7 -48 -7 -98 -1 -221 -39 -382 -141 -593 -27 -56
-49 -105 -49 -108 0 -3 -19 -38 -42 -77 -47 -78 -71 -97 -168 -130 -59 -20
-85 -22 -270 -23 -128 0 -233 5 -280 13 -344 62 -447 84 -475 102 -5 4 -39 17
-75 30 -36 13 -85 34 -110 48 -25 13 -66 31 -91 38 -26 8 -52 21 -59 29 -19
23 -30 18 -30 -15 0 -32 24 -54 75 -66 17 -4 46 -17 65 -29 19 -12 52 -28 73
-35 22 -7 51 -18 65 -26 15 -8 34 -14 42 -14 9 0 20 -4 25 -8 19 -15 121 -41
260 -65 77 -14 174 -31 215 -39 98 -17 540 -18 561 -1 8 6 31 14 52 18 20 4
40 11 43 16 9 15 24 10 24 -8 0 -10 9 -29 20 -43 11 -14 20 -28 20 -32 0 -5
-34 -8 -75 -8 l-75 0 0 -310 0 -310 80 0 80 0 0 103 c0 83 4 106 18 125 l18
24 44 -58 43 -57 -17 -121 c-9 -67 -19 -136 -22 -153 -6 -30 -4 -33 18 -33 19
0 26 8 36 42 6 24 14 68 17 98 4 30 8 66 11 79 5 24 6 23 31 -12 l26 -37 98 0
99 0 -73 93 c-126 161 -178 232 -178 240 0 5 46 63 103 130 57 67 109 130 117
140 13 16 8 17 -76 17 l-89 0 -54 -67 -54 -67 -8 30 c-15 48 -49 117 -78 154
-33 43 -47 90 -26 90 7 0 16 11 20 23 3 13 19 41 36 62 16 21 30 43 30 49 0
11 35 91 65 147 31 57 95 234 111 307 24 107 26 395 4 400 -9 1 -19 0 -23 -4z
m-223 -1166 c8 -18 24 -57 35 -87 l20 -54 -39 -50 -40 -50 0 137 c0 75 2 136
5 136 2 0 11 -15 19 -32z"/>
<path d="M946 784 c-147 -47 -215 -160 -204 -340 7 -123 57 -202 156 -251 51
-25 67 -28 157 -28 80 1 111 5 158 23 l57 23 0 75 c0 41 -2 74 -4 74 -2 0 -27
-15 -55 -34 -111 -75 -246 -53 -291 47 -28 61 -27 161 3 218 27 52 90 89 152
89 42 0 106 -25 155 -60 15 -11 31 -20 34 -20 4 0 6 34 4 76 l-3 76 -50 20
c-68 27 -203 33 -269 12z"/>
<path d="M2228 787 c-97 -28 -173 -105 -199 -202 -16 -58 -13 -178 6 -235 22
-66 82 -132 147 -161 76 -33 227 -34 311 -1 l57 23 0 75 c0 41 -3 74 -6 74 -3
0 -24 -13 -47 -28 -84 -57 -155 -66 -227 -29 -61 30 -90 87 -90 178 0 89 29
145 90 177 72 36 153 24 240 -38 15 -11 31 -20 34 -20 4 0 6 34 4 76 l-3 76
-50 20 c-64 26 -202 33 -267 15z"/>
<path d="M250 733 c-12 -32 -62 -168 -112 -303 -49 -134 -92 -248 -94 -252 -3
-5 31 -8 74 -8 l80 0 23 65 23 66 114 -3 115 -3 21 -60 21 -60 83 -3 c46 -2
81 1 79 5 -3 5 -46 119 -95 253 -50 135 -100 271 -112 303 l-21 57 -89 0 -89
0 -21 -57z m150 -218 c16 -49 30 -92 30 -97 0 -4 -33 -8 -74 -8 l-75 0 36 106
c20 61 39 102 44 97 5 -5 22 -49 39 -98z"/>
<path d="M2670 480 l0 -310 80 0 80 0 0 135 0 135 115 0 115 0 0 -135 0 -135
80 0 80 0 0 310 0 310 -80 0 -80 0 0 -115 0 -115 -115 0 -115 0 0 115 0 115
-80 0 -80 0 0 -310z"/>
<path d="M3310 786 c0 -3 52 -91 115 -196 l115 -191 0 -115 0 -114 75 0 75 0
0 116 0 116 112 186 c61 103 113 190 115 195 2 4 -34 7 -81 7 l-85 0 -47 -87
c-26 -49 -56 -103 -67 -121 l-20 -34 -66 121 -66 121 -87 0 c-49 0 -88 -2 -88
-4z"/>
<path d="M4000 573 c0 -129 5 -234 11 -258 16 -58 81 -119 148 -139 122 -36
258 -12 327 58 56 56 64 100 64 351 l0 205 -80 0 -80 0 0 -215 c0 -239 -5
-262 -60 -285 -42 -17 -117 -8 -144 19 -20 21 -21 32 -24 251 l-3 230 -80 0
-79 0 0 -217z"/>
<path d="M4851 768 c-5 -13 -42 -115 -84 -228 -41 -113 -89 -242 -106 -287
l-30 -83 78 0 79 0 23 65 23 66 115 -3 115 -3 20 -62 20 -63 84 0 c46 0 81 3
78 8 -2 4 -45 118 -94 252 -50 135 -100 271 -112 303 l-21 57 -90 0 c-84 0
-90 -1 -98 -22z m134 -248 c15 -47 30 -91 33 -97 3 -10 -15 -13 -71 -13 l-76
0 36 106 c19 58 39 102 43 97 4 -4 20 -46 35 -93z"/>
<path d="M5360 480 l0 -310 220 0 220 0 0 60 0 60 -140 0 -140 0 0 250 0 250
-80 0 -80 0 0 -310z"/>
<path d="M5900 480 l0 -310 220 0 220 0 0 60 0 60 -140 0 -140 0 0 250 0 250
-80 0 -80 0 0 -310z"/>
<path d="M2717 123 c-14 -14 -6 -40 21 -64 50 -46 79 -59 134 -59 l53 0 -70
42 c-38 23 -78 52 -88 65 -18 23 -38 29 -50 16z"/>
<path d="M5297 103 c-16 -16 -4 -43 31 -69 32 -25 48 -29 112 -32 54 -2 71 0
60 7 -8 6 -23 11 -34 11 -10 0 -47 20 -83 45 -65 46 -75 50 -86 38z"/>
<path d="M4453 56 c-24 -23 -43 -46 -43 -49 0 -17 68 -6 86 14 10 12 29 25 42
30 34 13 25 43 -13 46 -23 1 -39 -8 -72 -41z"/>
</g>
</svg>
